<svg width="146" height="135" viewBox="0 0 146 135" fill="none" xmlns="http://www.w3.org/2000/svg">
<rect x="0.21875" y="61.8192" width="145.465" height="5.2299" fill="#407BFF"/>
<rect opacity="0.3" x="0.21875" y="61.8192" width="38.9319" height="5.2299" fill="white"/>
<path d="M39.7715 67.0492H36.3848L38.1573 132.597H39.7715H41.3856L43.1624 67.0492H39.7715V67.0492Z" fill="#407BFF"/>
<path opacity="0.3" d="M38.1563 132.597H39.7705V68.4564L36.4395 69.0656L38.1563 132.597V132.597Z" fill="white"/>
<path d="M7.67184 67.0492H4.28516L6.05771 132.597H7.67184H9.28598L11.0585 67.0492H7.67184V67.0492Z" fill="#407BFF"/>
<path opacity="0.3" d="M6.05906 132.597H7.6732V68.4564L4.33789 69.0656L6.05906 132.597V132.597Z" fill="white"/>
<path d="M138.228 67.0492H134.842L136.614 132.597H138.228H139.843L141.619 67.0492H138.228V67.0492Z" fill="#407BFF"/>
<path opacity="0.3" d="M136.615 132.597H138.229V68.4564L134.898 69.0656L136.615 132.597V132.597Z" fill="white"/>
<path d="M106.131 67.0492H102.744L104.517 132.597H106.131H107.745L109.518 67.0492H106.131V67.0492Z" fill="#407BFF"/>
<path opacity="0.3" d="M104.516 132.597H106.13V68.4564L102.799 69.0656L104.516 132.597V132.597Z" fill="white"/>
<path d="M69.2659 33.8206H34.6797C34.1104 33.798 33.5646 34.0498 33.2115 34.4978C32.8584 34.9459 32.7405 35.5362 32.8943 36.0859L37.5012 58.1167C37.8058 59.397 38.9206 60.3197 40.2328 60.3777H74.8447C75.413 60.3999 75.9577 60.1487 76.3107 59.7018C76.6636 59.2548 76.7823 58.6659 76.6301 58.1167L72.0189 36.0859C71.7137 34.7965 70.5874 33.8697 69.2659 33.8206V33.8206Z" fill="#263238"/>
<path d="M40.5326 59.1206C39.6476 59.0608 38.9013 58.4376 38.683 57.5761L34.076 35.5453C33.9962 35.25 34.0545 34.9344 34.2345 34.6873C34.4212 34.4757 34.6936 34.3605 34.9752 34.3741H69.587C70.472 34.4339 71.2183 35.0571 71.4366 35.9186L76.0436 57.9494C76.1234 58.2447 76.0651 58.5603 75.8851 58.8075C75.6996 59.0206 75.4263 59.1362 75.1444 59.1206H40.5326Z" fill="white"/>
<path opacity="0.4" d="M66.6453 57.3574L62.2782 36.4678C62.2285 36.2174 62.2926 35.9578 62.4532 35.7596C62.6137 35.5614 62.854 35.4451 63.1088 35.4424H68.7262C69.1273 35.4455 69.4725 35.7272 69.5568 36.1203L73.9239 56.9927C73.9736 57.2431 73.9095 57.5026 73.7489 57.7008C73.5884 57.899 73.3481 58.0153 73.0933 58.0181H67.4759C67.0799 58.0168 66.7364 57.7436 66.6453 57.3574V57.3574Z" fill="#407BFF"/>
<path d="M36.9579 37.27L36.7695 36.3647H43.7056L43.894 37.27H36.9579V37.27Z" fill="#407BFF"/>
<path d="M40.161 39.5182L39.9727 38.6129H52.1279L52.3206 39.5182H40.161V39.5182Z" fill="#EBEBEB"/>
<path d="M40.802 41.762L40.6094 40.8568H54.2375L54.4259 41.762H40.802V41.762Z" fill="#EBEBEB"/>
<path d="M41.4403 44.0101L41.252 43.1049H52.2212L52.4139 44.0101H41.4403V44.0101Z" fill="#EBEBEB"/>
<path d="M39.0696 47.6526L38.877 46.7474H43.2655L43.4539 47.6526H39.0696V47.6526Z" fill="#407BFF"/>
<path d="M42.2665 49.8965L42.0781 48.9912H47.4215L47.6141 49.8965H42.2665V49.8965Z" fill="#EBEBEB"/>
<path d="M48.8958 49.8965L48.7031 48.9912H54.0507L54.2391 49.8965H48.8958V49.8965Z" fill="#EBEBEB"/>
<path d="M42.9091 52.1446L42.7207 51.2393H60.7887L60.9771 52.1446H42.9091V52.1446Z" fill="#EBEBEB"/>
<path d="M43.5478 54.3884L43.3594 53.4832H57.1373L57.3257 54.3884H43.5478V54.3884Z" fill="#EBEBEB"/>
<path d="M85.4256 60.2448H39.8873C38.6457 60.2448 37.8408 60.9527 38.1019 61.8193H88.1573C87.9004 60.9527 86.6673 60.2448 85.4256 60.2448Z" fill="#263238"/>
<path opacity="0.1" d="M24.9222 28.2517L20.5508 7.37504C20.5025 7.1253 20.5673 6.86698 20.7277 6.66981C20.8881 6.47264 21.1276 6.35694 21.3814 6.35394H56.7468C57.1466 6.35659 57.4914 6.6362 57.5774 7.02752L61.9488 27.8871C61.9985 28.1375 61.9344 28.397 61.7738 28.5952C61.6133 28.7934 61.373 28.9097 61.1182 28.9125H25.7528C25.3568 28.9112 25.0133 28.638 24.9222 28.2517Z" fill="#407BFF"/>
<path d="M37.4935 7.04045H30.0693L29.9023 6.23816H37.3265L37.4935 7.04045V7.04045Z" fill="#407BFF"/>
<path opacity="0.4" d="M36.2856 8.31895H33.3057L33.1387 7.51666H36.1186L36.2856 8.31895V8.31895Z" fill="#407BFF"/>
<path opacity="0.4" d="M41.2431 8.31895H36.6533L36.4863 7.51666H41.0761L41.2431 8.31895V8.31895Z" fill="#407BFF"/>
<path opacity="0.4" d="M43.2432 9.59318H33.5713L33.4043 8.79089H43.0805L43.2432 9.59318V9.59318Z" fill="#407BFF"/>
<path opacity="0.4" d="M42.0146 10.8717H33.8369L33.6699 10.0694H41.8476L42.0146 10.8717V10.8717Z" fill="#407BFF"/>
<path opacity="0.4" d="M47.4388 24.4334H42.2324L42.3994 25.2314H47.6057L47.4388 24.4334V24.4334Z" fill="#407BFF"/>
<path d="M40.9486 22.6829H33.3232L33.1562 21.8806H40.7816L40.9486 22.6829V22.6829Z" fill="#407BFF"/>
<path opacity="0.4" d="M44.014 25.7076H36.9238L37.0908 26.5099H44.181L44.014 25.7076V25.7076Z" fill="#407BFF"/>
<path opacity="0.4" d="M41.8645 24.4334H36.6582L36.8252 25.2314H42.0315L41.8645 24.4334V24.4334Z" fill="#407BFF"/>
<path opacity="0.4" d="M46.8052 23.1548H36.3926L36.5596 23.9571H46.9722L46.8052 23.1548V23.1548Z" fill="#407BFF"/>
<path d="M37.2314 1.08548H28.831L28.6641 0.287476H37.0644L37.2314 1.08548V1.08548Z" fill="#407BFF"/>
<path opacity="0.4" d="M41.3805 4.11444H32.1152L32.2822 4.91673H41.5432L41.3805 4.11444V4.11444Z" fill="#407BFF"/>
<path opacity="0.4" d="M39.5264 2.84021H31.8496L32.0166 3.63821H39.6934L39.5264 2.84021V2.84021Z" fill="#407BFF"/>
<path opacity="0.4" d="M40.0357 1.56171H31.584L31.751 2.364H40.2027L40.0357 1.56171V1.56171Z" fill="#407BFF"/>
<path d="M37.1378 12.9482H31.2978L31.1309 12.1459H36.9709L37.1378 12.9482V12.9482Z" fill="#407BFF"/>
<path opacity="0.4" d="M46.3087 15.9729H34.8984L35.0654 16.7752H46.4714L46.3087 15.9729V15.9729Z" fill="#407BFF"/>
<path opacity="0.4" d="M39.3596 14.6987H34.6328L34.7998 15.501H39.5266L39.3596 14.6987V14.6987Z" fill="#407BFF"/>
<path opacity="0.4" d="M44.4885 14.6987H39.7617L39.9287 15.501H44.6555L44.4885 14.6987V14.6987Z" fill="#407BFF"/>
<path opacity="0.4" d="M44.7799 13.4201H34.3672L34.5342 14.2224H44.9426L44.7799 13.4201V13.4201Z" fill="#407BFF"/>
<path opacity="0.4" d="M44.7593 19.8041H35.6953L35.8623 20.6021H44.9263L44.7593 19.8041V19.8041Z" fill="#407BFF"/>
<path opacity="0.4" d="M38.0671 18.5256H35.4297L35.5967 19.3279H38.2298L38.0671 18.5256V18.5256Z" fill="#407BFF"/>
<path opacity="0.4" d="M42.1892 18.5256H38.4258L38.5928 19.3279H42.3562L42.1892 18.5256V18.5256Z" fill="#407BFF"/>
<path opacity="0.4" d="M45.5767 17.2514H35.1641L35.331 18.0494H45.7437L45.5767 17.2514V17.2514Z" fill="#407BFF"/>
<path opacity="0.4" d="M53.7751 17.0368H50.0459L49.8789 16.2346H53.6124L53.7751 17.0368V17.0368Z" fill="#407BFF"/>
<path opacity="0.4" d="M59.9851 17.0368H54.2392L54.0723 16.2346H59.8181L59.9851 17.0368V17.0368Z" fill="#407BFF"/>
<path opacity="0.4" d="M62.4239 18.3154H50.3115L50.1445 17.5131H62.257L62.4239 18.3154V18.3154Z" fill="#407BFF"/>
<path opacity="0.4" d="M60.8143 19.5896H50.5771L50.4102 18.7874H60.6473L60.8143 19.5896V19.5896Z" fill="#407BFF"/>
<path opacity="0.4" d="M65.3994 11.9614H53.8008L53.9678 12.7594H65.5664L65.3994 11.9614V11.9614Z" fill="#407BFF"/>
<path opacity="0.4" d="M63.1491 10.6829H53.5371L53.7041 11.4852H63.3118L63.1491 10.6829V10.6829Z" fill="#407BFF"/>
<path d="M61.4101 9.40869H50.8262L50.9932 10.2067H61.5771L61.4101 9.40869V9.40869Z" fill="#407BFF"/>
<path opacity="0.4" d="M65.9218 24.6951H51.6387L51.8057 25.4974H66.0888L65.9218 24.6951V24.6951Z" fill="#407BFF"/>
<path opacity="0.4" d="M57.2901 23.4209H51.373L51.54 24.2189H57.4571L57.2901 23.4209V23.4209Z" fill="#407BFF"/>
<path opacity="0.4" d="M63.7139 23.4209H57.7969L57.9639 24.2189H63.8809L63.7139 23.4209V23.4209Z" fill="#407BFF"/>
<path opacity="0.4" d="M64.1423 22.1423H51.1094L51.2764 22.9446H64.3093L64.1423 22.1423V22.1423Z" fill="#407BFF"/>
<path opacity="0.4" d="M63.7816 28.5221H52.4355L52.6025 29.3244H63.9486L63.7816 28.5221V28.5221Z" fill="#407BFF"/>
<path opacity="0.4" d="M55.471 27.2479H52.1699L52.3369 28.0502H55.638L55.471 27.2479V27.2479Z" fill="#407BFF"/>
<path opacity="0.4" d="M60.6355 27.2479H55.9258L56.0928 28.0502H60.8024L60.6355 27.2479V27.2479Z" fill="#407BFF"/>
<path opacity="0.4" d="M64.9415 25.9693H51.9043L52.0713 26.7716H65.1042L64.9415 25.9693V25.9693Z" fill="#407BFF"/>
<path opacity="0.4" d="M30.2275 29.5131H21.3477L21.5146 30.3154H30.3945L30.2275 29.5131V29.5131Z" fill="#407BFF"/>
<path opacity="0.4" d="M27.6028 28.2389H21.082L21.249 29.0369H27.7655L27.6028 28.2389V28.2389Z" fill="#407BFF"/>
<path opacity="0.4" d="M34.577 28.2389H28.0605L28.2275 29.0369H34.7483L34.577 28.2389V28.2389Z" fill="#407BFF"/>
<path opacity="0.4" d="M33.8537 26.9604H20.8164L20.9834 27.7627H34.0163L33.8537 26.9604V26.9604Z" fill="#407BFF"/>
<path d="M133.562 53.4832H128.064L128.707 61.8193H132.92L133.562 53.4832V53.4832Z" fill="#407BFF"/>
<path opacity="0.4" d="M133.562 53.4832H128.064L128.707 61.8193H132.92L133.562 53.4832V53.4832Z" fill="white"/>
<path d="M13.756 47.6955H21.6596L18.9623 61.8192H11.0586L13.756 47.6955V47.6955Z" fill="#263238"/>
<path d="M23.8221 43.9114H12.6602L15.7857 61.8192H26.9476L23.8221 43.9114V43.9114Z" fill="#407BFF"/>
<path d="M12.002 43.9114H12.6613L15.7868 61.8192H15.1275L12.002 43.9114V43.9114Z" fill="#407BFF"/>
<path opacity="0.3" d="M12.002 43.9114H12.6613L15.7868 61.8192H15.1275L12.002 43.9114V43.9114Z" fill="black"/>
<path d="M17.3912 59.9015L14.9336 45.825H22.2207L24.6741 59.9015H17.3912V59.9015Z" fill="white"/>
<path opacity="0.6" d="M24.3283 59.9015L21.875 45.825H22.2218L24.6751 59.9015H24.3283V59.9015Z" fill="#407BFF"/>
<path d="M79.4732 21.3458C79.6318 21.6902 79.5803 22.0561 79.3532 22.1594C79.1261 22.2628 78.8175 22.069 78.6589 21.7289C78.5003 21.3888 78.5561 21.0186 78.7789 20.9153C79.0018 20.812 79.3146 20.9842 79.4732 21.3458Z" fill="#263238"/>
<path d="M79.609 22.0259C79.609 22.0259 79.7462 24.3765 79.3262 25.7369C80.1833 26.0254 81.109 25.3064 81.109 25.3064L79.609 22.0259Z" fill="#FF5652"/>
<path d="M79.5166 18.5001C79.4801 18.5304 79.4352 18.5484 79.388 18.5518C78.8222 18.5668 78.2979 18.8534 77.978 19.3224C77.9397 19.3945 77.8652 19.4399 77.7839 19.4408C77.7025 19.4416 77.6271 19.3979 77.5872 19.3266C77.5473 19.2553 77.5493 19.1679 77.5923 19.0985C77.9863 18.4977 78.6465 18.1268 79.3623 18.104C79.4584 18.0987 79.5471 18.156 79.5821 18.246C79.6172 18.336 79.5908 18.4385 79.5166 18.5001Z" fill="#263238"/>
<path d="M92.0945 20.812C93.4188 25.4184 94.8973 28.9916 96.7016 31.0322C96.7016 31.0322 96.7359 34.6528 90.5945 36.3748C83.8402 38.2691 86.4288 33.9123 86.4288 33.9123C89.8573 31.9966 89.5316 29.1035 86.9516 28.0014L92.0945 20.812Z" fill="#FF8B7B"/>
<path d="M98.1326 30.1496C98.0126 28.4664 97.854 26.5463 96.8211 26.4946C95.6811 26.443 89.0811 29.4049 87.6711 31.4928C86.2611 33.5808 89.0168 35.6257 89.0168 35.6257L98.1326 30.1496Z" fill="#263238"/>
<path d="M84.6238 56.217L78.9238 56.0276L79.0267 60.8235C79.0267 60.8235 83.9981 60.3068 84.2167 58.9938L84.6238 56.217Z" fill="#FF8B7B"/>
<path d="M75.9105 58.3824L75.3105 60.8363L79.0263 60.8277L78.9234 56.0319L75.9105 58.3824V58.3824Z" fill="#FF8B7B"/>
<path d="M107.502 36.2887L107.382 37.5199C107.343 37.916 107.292 38.3035 107.24 38.6952C107.142 39.4744 107.017 40.2537 106.885 41.0286C106.627 42.5827 106.293 44.1282 105.907 45.6824C105.515 47.2663 105.04 48.8283 104.485 50.362C104.189 51.1498 103.88 51.9377 103.512 52.7384C103.14 53.5784 102.711 54.3911 102.226 55.1708C102.11 55.3731 101.965 55.6013 101.823 55.7907C101.682 55.9801 101.545 56.2212 101.395 56.4193C101.245 56.6173 101.086 56.8498 100.889 57.0521L100.61 57.3707C100.511 57.4882 100.405 57.6003 100.293 57.7065C99.4341 58.5516 98.4273 59.2302 97.3231 59.7083C95.6292 60.4382 93.8315 60.8959 91.996 61.0644C91.1603 61.1635 90.3331 61.2022 89.5231 61.2237C88.7131 61.2453 87.9031 61.2237 87.106 61.1807C86.3089 61.1376 85.5203 61.0688 84.736 60.974C83.9517 60.8793 83.1889 60.7545 82.3574 60.5866L82.4946 56.0878C85.2311 55.6071 87.936 54.9601 90.5946 54.1505C91.1859 53.9574 91.7667 53.7332 92.3346 53.4789C92.8181 53.2739 93.2803 53.0216 93.7146 52.7255C93.9671 52.5727 94.1812 52.3635 94.3403 52.1142L94.4646 51.9161C94.5221 51.8316 94.5751 51.7439 94.6231 51.6535C94.6842 51.5547 94.74 51.4527 94.7903 51.3479C94.846 51.2359 94.906 51.1326 94.9617 51.0078C95.4652 49.9036 95.8794 48.7605 96.2003 47.5895C96.5517 46.3238 96.8817 45.0065 97.1474 43.6418C97.4131 42.2771 97.6703 40.8994 97.906 39.5089L98.2317 37.4166L98.5274 35.3803L107.502 36.2887Z" fill="#407BFF"/>
<path opacity="0.2" d="M107.502 36.2887L107.382 37.5199C107.343 37.916 107.292 38.3035 107.24 38.6952C107.142 39.4744 107.017 40.2537 106.885 41.0286C106.627 42.5827 106.293 44.1282 105.907 45.6824C105.515 47.2663 105.04 48.8283 104.485 50.362C104.189 51.1498 103.88 51.9377 103.512 52.7384C103.14 53.5784 102.711 54.3911 102.226 55.1708C102.11 55.3731 101.965 55.6013 101.823 55.7907C101.682 55.9801 101.545 56.2212 101.395 56.4193C101.245 56.6173 101.086 56.8498 100.889 57.0521L100.61 57.3707C100.511 57.4882 100.405 57.6003 100.293 57.7065C99.4341 58.5516 98.4273 59.2302 97.3231 59.7083C95.6292 60.4382 93.8315 60.8959 91.996 61.0644C91.1603 61.1635 90.3331 61.2022 89.5231 61.2237C88.7131 61.2453 87.9031 61.2237 87.106 61.1807C86.3089 61.1376 85.5203 61.0688 84.736 60.974C83.9517 60.8793 83.1889 60.7545 82.3574 60.5866L82.4946 56.0878C85.2311 55.6071 87.936 54.9601 90.5946 54.1505C91.1859 53.9574 91.7667 53.7332 92.3346 53.4789C92.8181 53.2739 93.2803 53.0216 93.7146 52.7255C93.9671 52.5727 94.1812 52.3635 94.3403 52.1142L94.4646 51.9161C94.5221 51.8316 94.5751 51.7439 94.6231 51.6535C94.6842 51.5547 94.74 51.4527 94.7903 51.3479C94.846 51.2359 94.906 51.1326 94.9617 51.0078C95.4652 49.9036 95.8794 48.7605 96.2003 47.5895C96.5517 46.3238 96.8817 45.0065 97.1474 43.6418C97.4131 42.2771 97.6703 40.8994 97.906 39.5089L98.2317 37.4166L98.5274 35.3803L107.502 36.2887Z" fill="black"/>
<path d="M82.194 42.0102C84.3191 51.2137 85.5152 60.609 85.764 70.0535H110.857C110.994 66.9409 110.471 49.3891 107.947 36.7106C107.494 34.3907 106.13 32.3521 104.162 31.0558C102.193 29.7594 99.7883 29.3148 97.4898 29.8225L97.3698 29.8526C94.2369 30.5673 89.7412 31.721 87.084 32.7327L86.9769 32.7758C83.301 34.2115 81.2547 38.1624 82.194 42.0102Z" fill="#407BFF"/>
<path opacity="0.2" d="M83.8262 50.0607C84.0233 51.2704 84.2247 52.5533 84.409 53.8965C86.4619 51.7439 87.1133 45.1486 87.1133 45.1486L83.8262 50.0607Z" fill="black"/>
<path d="M62.9819 56.5313L57.2862 55.9974L57.0977 60.789C59.0163 61.321 61.0703 60.7388 62.4291 59.2779L62.9819 56.5313Z" fill="#FF8B7B"/>
<path d="M54.5777 57.4095L52.752 60.7029L57.1148 60.789L57.3034 55.9974L54.5777 57.4095V57.4095Z" fill="#FF8B7B"/>
<path d="M91.6108 39.8017C91.2165 40.5551 90.865 41.2223 90.4708 41.9112C90.0765 42.6 89.6993 43.2716 89.2922 43.9389C88.4865 45.282 87.6508 46.5994 86.7679 47.9038C84.9954 50.5751 83.0316 53.1132 80.8922 55.498C79.7465 56.7819 78.5011 57.9724 77.1679 59.0583C77.0008 59.2004 76.8036 59.3381 76.6193 59.4888C76.435 59.6395 76.2722 59.76 75.9979 59.9193C75.7236 60.0786 75.4922 60.2379 75.2436 60.3757C74.995 60.5134 74.7379 60.6383 74.485 60.7502C73.5397 61.1625 72.5504 61.4644 71.5365 61.65C69.7631 61.9503 67.9557 61.9909 66.1708 61.7705C65.3348 61.6743 64.5049 61.5305 63.685 61.34C63.2765 61.2453 62.8736 61.1377 62.4765 61.0171C62.0479 60.8966 61.7008 60.7631 61.2422 60.5866L61.9493 56.1438C64.6408 55.7778 67.5508 55.3086 69.5565 54.3959C70.0017 54.2121 70.421 53.9704 70.8036 53.677C70.9577 53.5705 71.1012 53.4494 71.2322 53.3153C71.2622 53.2766 71.395 53.1603 71.4936 53.0656C71.5922 52.9709 71.7079 52.8805 71.815 52.7686C72.7324 51.8554 73.5913 50.8849 74.3865 49.8626C76.1119 47.6267 77.7239 45.3047 79.2165 42.9056C79.9879 41.6873 80.7379 40.4474 81.4879 39.2033L82.5936 37.3349L83.6608 35.4966L91.6108 39.8017Z" fill="#407BFF"/>
<path d="M84.7238 129.662H80.0353L77.6738 118.748H82.3667L84.7238 129.662V129.662Z" fill="#FF8B7B"/>
<path d="M79.7733 128.654H85.0447C85.2328 128.661 85.3945 128.79 85.4433 128.973L86.369 133.166C86.4138 133.372 86.3618 133.588 86.228 133.751C86.0943 133.914 85.8935 134.006 85.6833 134.001C83.8447 133.971 82.949 133.863 80.6305 133.863C79.2033 133.863 77.3733 134.01 75.4062 134.01C73.439 134.01 73.1776 132.055 73.9833 131.879C77.6005 131.082 77.8405 129.989 79.0105 128.943C79.2202 128.755 79.4922 128.652 79.7733 128.654Z" fill="#263238"/>
<g opacity="0.2">
<path d="M82.369 118.753H77.6719L78.9833 124.797L83.5862 124.379L82.369 118.753V118.753Z" fill="black"/>
</g>
<path d="M90.5892 15.2756C92.3035 19.6323 93.4949 22.0992 92.3635 25.2634C90.6492 30.0205 84.5677 30.5027 81.6106 26.74C78.9535 23.3519 76.6306 16.7953 79.9863 13.1919C81.4805 11.5677 83.7059 10.8372 85.8665 11.2618C88.0272 11.6864 89.8145 13.2054 90.5892 15.2756V15.2756Z" fill="#FF8B7B"/>
<path d="M82.3533 21.8021C81.6504 22.7492 81.1104 23.4682 81.1104 23.4682C81.1104 23.4682 79.6661 19.8648 80.219 18.2116C79.5161 16.8125 78.0975 18.8746 77.5618 16.1495C77.0261 13.4244 79.3447 10.4969 80.219 9.88992C80.3091 10.2075 80.3496 10.5371 80.339 10.8672C82.7014 8.94133 85.7039 7.9888 88.739 8.20233C88.4853 8.5813 88.3238 9.01485 88.2675 9.46802C88.2675 9.46802 93.3547 10.329 94.5118 13.2221C94.1026 13.0258 93.6707 12.8812 93.2261 12.7915C94.1587 14.1347 94.5281 15.7923 94.2547 17.4066C93.8856 19.7608 93.6936 22.1397 93.6804 24.5229C93.7275 25.7455 90.389 28.0832 88.3533 25.5863C86.3175 23.0893 82.3533 21.8021 82.3533 21.8021Z" fill="#263238"/>
<path d="M84.4737 20.8636C84.7392 21.8784 84.6639 22.9528 84.2594 23.9202C83.7151 25.2117 82.5966 24.9017 82.0437 23.7738C81.5423 22.7621 81.2209 20.8851 82.108 19.9853C82.9951 19.0856 84.1394 19.6452 84.4737 20.8636Z" fill="#FF8B7B"/>
<path d="M93.2865 70.0363C93.2865 70.0363 71.4979 77.9748 70.8594 88.4749C69.6765 107.818 77.5494 123.131 77.5494 123.131L84.7665 122.356C84.7665 122.356 83.4808 116.131 82.5251 98.6091C81.3208 76.5886 118.525 99.1257 110.862 70.0363H93.2865Z" fill="#407BFF"/>
<path opacity="0.5" d="M93.2865 70.0363C93.2865 70.0363 71.4979 77.9748 70.8594 88.4749C69.6765 107.818 77.5494 123.131 77.5494 123.131L84.7665 122.356C84.7665 122.356 83.4808 116.131 82.5251 98.6091C81.3208 76.5886 118.525 99.1257 110.862 70.0363H93.2865Z" fill="white"/>
<path d="M75.5515 120.462C75.5172 120.462 76.7001 123.682 76.7001 123.682L85.7001 122.795L85.2501 119.868L75.5515 120.462Z" fill="#407BFF"/>
<path d="M64.4549 130.2H59.7621L58.3906 119.282H63.0835L64.4549 130.2V130.2Z" fill="#FF8B7B"/>
<path d="M59.7276 128.65H64.8705C65.0618 128.648 65.2284 128.781 65.269 128.969L66.2033 133.157C66.2586 133.365 66.2133 133.587 66.081 133.757C65.9487 133.926 65.7447 134.023 65.5305 134.018C63.6833 133.988 61.009 133.885 58.6733 133.889C55.9562 133.889 55.4376 134.04 52.2448 134.044C50.3162 134.044 49.7805 132.094 50.5862 131.892C54.2548 131.082 55.429 130.992 58.5962 129.025C58.9305 128.795 59.3228 128.665 59.7276 128.65Z" fill="#263238"/>
<path opacity="0.2" d="M58.3965 119.286L59.1422 125.232L63.7965 124.913L63.0893 119.286H58.3965V119.286Z" fill="black"/>
<path d="M85.7647 70.0363C85.7647 70.0363 50.0647 73.2177 50.4504 91.2302C50.8489 109.966 57.8175 122.601 57.8175 122.601H64.7861C64.7861 122.601 63.4661 112.88 63.7018 94.4375C63.7704 88.9141 74.8875 87.0887 85.7389 86.4429C95.1161 85.8833 103.893 80.5148 107.536 71.8056L108.286 70.0363H85.7647Z" fill="#407BFF"/>
<path opacity="0.5" d="M85.7647 70.0363C85.7647 70.0363 50.0647 73.2177 50.4504 91.2302C50.8489 109.966 57.8175 122.601 57.8175 122.601H64.7861C64.7861 122.601 63.4661 112.88 63.7018 94.4375C63.7704 88.9141 74.8875 87.0887 85.7389 86.4429C95.1161 85.8833 103.893 80.5148 107.536 71.8056L108.286 70.0363H85.7647Z" fill="white"/>
<path d="M56.1841 120.72C56.1541 120.72 57.3798 123.957 57.3798 123.957L65.797 123.35L65.3041 120.423L56.1841 120.72Z" fill="#407BFF"/>
<path d="M95.1372 49.7938L90.6072 67.3284C89.4489 71.8206 88.8642 76.4426 88.8672 81.0831V89.2327C88.8672 91.2905 90.3758 92.9609 92.2401 92.9609H115.46C117.324 92.9609 118.833 91.2905 118.833 89.2327V81.0831C118.831 76.4425 119.418 71.8205 120.577 67.3284L124.576 51.8301C125.193 49.4494 123.573 47.0945 121.331 47.0945H98.3772C96.8097 47.144 95.4756 48.2556 95.1372 49.7938Z" fill="#263238"/>
<path d="M66.2553 84.4713L67.0138 88.8194C67.4167 91.1054 69.4181 92.9609 71.4881 92.9609H97.301C99.371 92.9609 100.73 91.1054 100.327 88.8194L99.5681 84.4713C99.1095 81.8667 96.8338 79.7572 94.4767 79.7572H69.7138C67.3395 79.7572 65.801 81.8667 66.2553 84.4713Z" fill="#263238"/>
<path d="M99.7867 97.3262H86.2653L84.9453 92.9608H101.107L99.7867 97.3262V97.3262Z" fill="#407BFF"/>
<rect x="90.6113" y="97.3262" width="4.83" height="32.4646" fill="#407BFF"/>
<path opacity="0.7" d="M95.4413 129.791H90.6113V98.1055L95.4413 98.6006V129.791V129.791Z" fill="white"/>
<path opacity="0.7" d="M94.2622 129.791H93.1094V98.3594L94.2622 98.4799V129.791V129.791Z" fill="white"/>
<path d="M104.133 134.811H81.9162C81.6506 134.808 81.4163 134.635 81.3346 134.381C81.2529 134.127 81.3422 133.849 81.5562 133.691L85.0791 131.108C86.7727 129.862 88.817 129.19 90.9162 129.188H95.1377C97.2355 129.19 99.2783 129.863 100.971 131.108L104.498 133.691C104.712 133.85 104.801 134.129 104.719 134.383C104.636 134.638 104.4 134.81 104.133 134.811V134.811Z" fill="#407BFF"/>
</svg>
