<svg width="118" height="133" viewBox="0 0 118 133" fill="none" xmlns="http://www.w3.org/2000/svg">
<path d="M87.7837 26.211V26.211C86.4341 24.8608 86.4341 22.6774 87.7837 21.3272L89.4273 19.6895C90.7823 18.3446 92.9735 18.3446 94.3285 19.6895V19.6895C95.673 21.0401 95.673 23.2184 94.3285 24.569L92.6807 26.211C91.3253 27.5507 89.1392 27.5507 87.7837 26.211Z" fill="#83FFA3"/>
<path opacity="0.4" d="M87.7837 26.211V26.211C86.4341 24.8608 86.4341 22.6774 87.7837 21.3272L89.4273 19.6895C90.7823 18.3446 92.9735 18.3446 94.3285 19.6895V19.6895C95.673 21.0401 95.673 23.2184 94.3285 24.569L92.6807 26.211C91.3253 27.5507 89.1392 27.5507 87.7837 26.211Z" fill="white"/>
<path d="M90.0979 23.9182V23.9182C88.3554 22.1775 88.3554 19.3599 90.0979 17.6192L93.3176 14.411C95.0645 12.6747 97.8921 12.6747 99.639 14.411V14.411C101.384 16.1507 101.384 18.9702 99.639 20.7099L96.4109 23.9182C94.6631 25.6443 91.8457 25.6443 90.0979 23.9182Z" fill="#83FFA3"/>
<path d="M94.5862 19.4291V19.4291C91.6072 16.4759 86.7934 16.4759 83.8145 19.4291L94.5862 30.1667C97.5481 27.1959 97.5481 22.3999 94.5862 19.4291Z" fill="#83FFA3"/>
<path d="M98.9556 40.2492C98.5949 40.2492 98.3024 39.9578 98.3024 39.5983C98.3024 39.2388 98.5949 38.9474 98.9556 38.9474C105.473 38.9474 110.756 33.6832 110.756 27.1894C110.756 20.6956 105.473 15.4314 98.9556 15.4314C98.7105 15.4511 98.4751 15.3319 98.3465 15.123C98.2178 14.9142 98.2178 14.651 98.3465 14.4422C98.4751 14.2333 98.7105 14.1142 98.9556 14.1338C103.693 14.0492 108.108 16.5193 110.502 20.5941C112.896 24.669 112.896 29.714 110.502 33.7889C108.108 37.8638 103.693 40.3339 98.9556 40.2492V40.2492Z" fill="#83FFA3"/>
<path fill-rule="evenodd" clip-rule="evenodd" d="M99.9329 58.0793L114.843 128.627L115.581 128.606L115.441 130.63H81.3984L81.567 128.149H83.8638L83.8343 128.606H94.1214L105.681 95.2388L97.9395 58.6211L99.9329 58.0793ZM112.736 128.627L105.993 96.6582L94.901 128.627H112.736Z" fill="#83FFA3"/>
<path fill-rule="evenodd" clip-rule="evenodd" d="M25.7072 58.1003L40.6005 128.627H41.338L41.1989 130.651H7.16016L7.32451 128.17H9.62551L9.5918 128.627H19.8915L31.4513 95.2598L23.7139 58.642L25.7072 58.1003ZM38.4934 128.627L31.7505 96.6582L20.6501 128.627H38.4934Z" fill="#83FFA3"/>
<path d="M106.735 93.114L104.817 98.6445H30.7598L32.6731 93.114H106.735V93.114Z" fill="#83FFA3"/>
<path d="M103.819 97.2839L104.818 98.6445H30.7605L29.7617 97.2839H103.819V97.2839Z" fill="#83FFA3"/>
<path opacity="0.2" d="M103.819 97.2839L104.818 98.6445H30.7605L29.7617 97.2839H103.819V97.2839Z" fill="black"/>
<path d="M91.9047 84.5853H1.44931L0.138672 83.2835L116.584 33.925L117.89 35.2268L91.9047 84.5853V84.5853Z" fill="#83FFA3"/>
<path opacity="0.4" d="M91.9047 84.5853H1.44931L0.138672 83.2835L116.584 33.925L117.89 35.2268L91.9047 84.5853V84.5853Z" fill="black"/>
<path d="M12.9579 55.7743L15.468 51.0023L15.8412 51.1972L13.3312 55.9692L12.9579 55.7743Z" fill="#83FFA3"/>
<path d="M10.9383 59.6102L12.1317 57.3414L12.505 57.5363L11.3116 59.8051L10.9383 59.6102Z" fill="#83FFA3"/>
<path d="M90.5941 83.2835H0.138672L26.1282 33.925H116.584L90.5941 83.2835V83.2835Z" fill="#83FFA3"/>
<path opacity="0.3" d="M81.4997 75.3678L17.4805 75.5946L36.4195 40.2953C51.5909 41.3788 74.3143 41.4795 99.1702 40.9882L81.4997 75.3678Z" fill="black"/>
<path d="M80.5779 75.5946H17.1191L35.3501 40.9673C54.896 41.6896 75.8284 41.2276 98.3748 40.6061C94.8811 49.3323 88.5429 61.9931 80.5779 75.5946Z" fill="white"/>
<g opacity="0.6">
<path d="M28.2952 71.5129C34.2598 71.4793 40.2245 71.4513 46.1891 71.4289L65.3851 71.3407L75.0232 71.2945C75.1028 71.2817 75.1613 71.2132 75.1613 71.1329C75.1613 71.0525 75.1028 70.984 75.0232 70.9712L57.1294 71.0552L37.9333 71.1392L28.2952 71.1854C28.2044 71.1854 28.1309 71.2587 28.1309 71.3491C28.1309 71.4396 28.2044 71.5129 28.2952 71.5129V71.5129Z" fill="#83FFA3"/>
<path d="M74.2348 71.8278C78.0586 64.5771 81.9174 57.3431 85.8114 50.1259C86.9353 48.0487 88.0591 45.9714 89.1829 43.8942C89.284 43.7094 89.0017 43.5456 88.9005 43.7262C84.9672 50.9406 81.0802 58.1745 77.2396 65.4281C76.1354 67.5082 75.0369 69.5868 73.944 71.6641C73.8471 71.8488 74.1252 72.0126 74.2264 71.8278H74.2348Z" fill="#83FFA3"/>
<path d="M89.3775 44.0453C83.3848 44.0789 77.3935 44.1069 71.4036 44.1293L51.98 44.2175L42.3714 44.2637C42.2806 44.2637 42.207 44.337 42.207 44.4275C42.207 44.5179 42.2806 44.5913 42.3714 44.5913C48.3641 44.5577 54.3554 44.5297 60.3453 44.5073L79.769 44.4191L89.3775 44.3729C89.4683 44.3729 89.5419 44.2996 89.5419 44.2091C89.5419 44.1187 89.4683 44.0453 89.3775 44.0453V44.0453Z" fill="#83FFA3"/>
<path d="M43.5041 43.4575C39.6439 50.7894 35.7428 58.1032 31.8011 65.3987C30.6773 67.49 29.545 69.5784 28.4044 71.6641C28.3032 71.8488 28.5856 72.0126 28.6867 71.8278C32.6538 64.5491 36.5871 57.2367 40.4867 49.8908C41.5937 47.8023 42.6978 45.7125 43.7991 43.6212C43.9003 43.4365 43.6179 43.2727 43.5168 43.4575H43.5041Z" fill="#83FFA3"/>
<path d="M49.8841 68.0107L56.471 55.0685L58.2452 51.5915C58.3421 51.4067 58.0598 51.2387 57.9628 51.4277L51.1652 64.7394L49.5848 67.8259C49.4921 68.0149 49.7745 68.1787 49.8672 67.9897L49.8841 68.0107Z" fill="#83FFA3"/>
<path d="M34.25 68.0652L38.0429 60.6325C38.1356 60.4435 37.8532 60.2798 37.7605 60.4645L33.9677 67.9015C33.8749 68.0904 34.1573 68.2542 34.25 68.0652Z" fill="#83FFA3"/>
<path d="M71.644 68.0107C74.8005 62.3374 77.5861 56.4668 80.5783 50.7054C81.3115 49.2944 82.0533 47.8835 82.8287 46.5061C82.9298 46.3213 82.6475 46.1576 82.5463 46.3423C79.3898 52.0114 76.6 57.8862 73.612 63.6434C72.8788 65.0586 72.137 66.4653 71.3616 67.8427C71.2605 68.0233 71.5386 68.1912 71.644 68.0065V68.0107Z" fill="#83FFA3"/>
<path d="M54.3258 67.9687C57.1915 62.3543 60.0867 56.7482 62.944 51.1296L63.9133 49.2231L64.4358 48.1943L64.6929 47.6819C64.7645 47.5434 64.8741 47.157 65.0174 47.0814C65.2285 47.052 65.4427 47.052 65.6538 47.0814H66.4587H68.1823C70.7474 47.0562 73.3111 47.0352 75.8734 47.0185C78.4652 47.0185 81.0528 46.9975 83.6445 47.0436C83.7242 47.0308 83.7827 46.9623 83.7827 46.882C83.7827 46.8016 83.7242 46.7331 83.6445 46.7203C77.3948 46.6111 71.1408 46.7203 64.8952 46.7917C64.8366 46.7909 64.782 46.8213 64.7519 46.8715C61.2203 53.8801 57.6129 60.8509 54.0434 67.8385C53.9465 68.0275 54.2288 68.1913 54.3258 68.0023V67.9687Z" fill="#83FFA3"/>
<path d="M71.6674 67.8889C70.1292 62.3668 68.2959 56.9287 66.5344 51.4781C66.0371 49.9439 65.5426 48.4112 65.0509 46.8798C64.9877 46.6783 64.6717 46.7623 64.7349 46.9638C66.5175 52.5531 68.3887 58.1171 70.1039 63.7274C70.5253 65.1384 70.9467 66.5535 71.3682 67.9771C71.3962 68.0594 71.484 68.1056 71.5681 68.0821C71.6522 68.0587 71.7032 67.9738 71.6842 67.8889H71.6674Z" fill="#83FFA3"/>
<path d="M82.7398 46.7328C79.2588 49.6723 75.525 52.2759 71.8037 54.8878C67.7749 57.714 63.7123 60.4897 59.7551 63.4082C57.7997 64.8486 55.8653 66.3225 54.011 67.8888C53.8509 68.0232 54.0827 68.2542 54.2428 68.1198C57.7912 65.1257 61.5925 62.4382 65.3896 59.7674C69.389 56.9539 73.4304 54.195 77.375 51.3017C79.2799 49.9075 81.1679 48.4797 82.9716 46.9638C83.1317 46.8252 82.8999 46.5985 82.7398 46.7328V46.7328Z" fill="#83FFA3"/>
<path d="M53.7162 67.9225C58.5374 68.061 63.3585 68.1156 68.1797 68.1198C69.3428 68.1198 70.5102 68.1198 71.6733 68.0946C71.7529 68.0818 71.8114 68.0133 71.8114 67.933C71.8114 67.8526 71.7529 67.7841 71.6733 67.7713C66.8395 67.8637 61.9805 67.7713 57.1593 67.6789C56.013 67.6537 54.8625 67.6327 53.7162 67.5991C53.6366 67.6119 53.5781 67.6804 53.5781 67.7608C53.5781 67.8412 53.6366 67.9096 53.7162 67.9225V67.9225Z" fill="#83FFA3"/>
<path d="M47.0308 68.1198C50.1031 62.4214 52.9308 56.6054 55.9103 50.8523C56.6436 49.4302 57.3881 48.0136 58.1439 46.6027C58.2408 46.4179 57.9585 46.2541 57.8616 46.4389C54.7893 52.1373 51.9616 57.9533 48.9821 63.7064C48.2488 65.1299 47.5113 66.5493 46.7485 67.956C46.6516 68.1408 46.9339 68.3046 47.0308 68.1198Z" fill="#83FFA3"/>
<path d="M37.9576 68.0484C39.8794 64.2859 41.8039 60.5247 43.7312 56.7649C44.6921 54.8837 45.6529 53.0024 46.6138 51.1211C47.0858 50.2015 47.5536 49.2776 48.0214 48.358C48.1731 48.0556 48.4049 47.2913 48.7336 47.1612C49.0128 47.1178 49.2972 47.1178 49.5764 47.1612H50.512C52.9563 47.1192 55.4048 47.073 57.8533 47.1612C58.0598 47.1612 58.0598 46.842 57.8533 46.8336C54.7474 46.737 51.6414 46.8336 48.5397 46.8798C48.4811 46.879 48.4265 46.9094 48.3964 46.9596C44.8522 53.9598 41.2574 60.939 37.6879 67.9267C37.591 68.1114 37.8734 68.2794 37.9703 68.0904L37.9576 68.0484Z" fill="#83FFA3"/>
<path d="M47.0572 68.04C47.6852 61.0314 48.0392 54.006 48.6882 47.0016C48.7092 46.7916 48.3847 46.7916 48.3637 47.0016C47.7147 54.006 47.3607 61.0314 46.7285 68.04C46.7285 68.2458 47.0362 68.2458 47.0572 68.04Z" fill="#83FFA3"/>
<path d="M57.9008 46.8379C52.6751 52.4565 47.2471 57.882 41.9413 63.4208C40.4944 64.9242 39.0615 66.4401 37.6427 67.9687C37.4994 68.1199 37.7312 68.3508 37.8745 68.1954C43.1297 62.5264 48.5998 57.0547 53.9562 51.4781C55.361 50.0167 56.7531 48.547 58.1326 47.0688C58.2758 46.9176 58.0441 46.6867 57.9008 46.8379V46.8379Z" fill="#83FFA3"/>
<path d="M37.5545 68.0107C40.6604 68.1619 43.7832 68.2963 46.8934 68.2081C47.1041 68.2081 47.1041 67.8763 46.8934 67.8847C43.7832 67.9687 40.6604 67.8386 37.5545 67.6874C37.3438 67.6874 37.3438 68.0023 37.5545 68.0107Z" fill="#83FFA3"/>
<path d="M42.5652 48.7233C42.4077 48.9828 42.3607 49.2942 42.4345 49.5884C42.5145 49.8382 42.7186 50.0289 42.974 50.0923C43.5987 50.194 44.2362 50.0105 44.7103 49.5926C45.2039 49.2337 45.4827 48.6511 45.452 48.043C45.3801 47.5324 44.9229 47.165 44.4068 47.2032C44.0466 47.244 43.7131 47.4124 43.467 47.6777C43.3304 47.8033 43.201 47.9365 43.0793 48.0766C42.9624 48.1936 42.8768 48.338 42.8307 48.4965C42.7928 48.7023 43.1088 48.7905 43.1468 48.5847C43.1847 48.379 43.4207 48.1648 43.5682 48.0178C43.7337 47.8324 43.9341 47.6811 44.1582 47.5727C44.3372 47.493 44.5418 47.4933 44.7205 47.5736C44.8992 47.6538 45.035 47.8063 45.0938 47.9926C45.1668 48.4383 45.0081 48.8904 44.6723 49.1936C44.316 49.5633 43.8364 49.7903 43.3238 49.8319C43.1136 49.8617 42.903 49.7806 42.7675 49.6178C42.661 49.3892 42.6817 49.1218 42.8223 48.9123C42.9192 48.7275 42.6368 48.5637 42.5399 48.7485L42.5652 48.7233Z" fill="#83FFA3"/>
</g>
<path opacity="0.2" d="M116.584 33.925L90.6067 83.2835H0.138672L26.1282 33.925H52.0587L38.8427 39.9594H38.8132C32.0703 42.4076 26.6802 46.1576 23.9241 50.8398C17.6027 61.5648 27.5357 73.096 46.0912 76.6318C64.6467 80.1676 84.7995 74.3054 91.1082 63.5804C92.4248 61.4361 93.0812 58.954 92.9962 56.4416L94.3575 33.8998L116.584 33.925Z" fill="black"/>
<path d="M34.6046 25.6308C33.5095 27.5482 32.3975 29.5369 31.3362 31.5046C30.2749 33.4724 29.2221 35.4569 28.3511 37.4372C28.1228 37.9323 27.9283 38.4232 27.7253 38.914C27.7042 38.9602 27.7253 38.914 27.7253 38.914V38.914V38.914C27.7253 38.914 27.7253 38.9476 27.7 38.9812C27.6851 39.1066 27.6851 39.2333 27.7 39.3588C27.7785 39.7674 27.9077 40.1648 28.0847 40.5419C28.2792 40.9615 28.5076 41.4272 28.7655 41.8761C29.9032 43.744 31.166 45.534 32.5455 47.2339L30.8965 48.975C28.934 47.5471 27.1661 45.8731 25.6366 43.9949C24.7497 42.9344 24.0635 41.7233 23.6113 40.4203C23.4774 39.9937 23.395 39.5529 23.3661 39.107C23.3518 38.8439 23.3603 38.58 23.3914 38.3183C23.406 38.1773 23.4286 38.0372 23.4591 37.8987C23.4591 37.8274 23.4972 37.7519 23.5141 37.6805L23.569 37.4917C23.7635 36.9127 23.9496 36.3254 24.161 35.7632C24.9895 33.5585 25.9352 31.399 26.9939 29.2936C28.0551 27.1958 29.1587 25.1861 30.3764 23.1638L34.6046 25.6308Z" fill="#FFC3BD"/>
<path d="M31.9325 46.6801L34.1819 47.4101L32.2919 50.5736C32.2919 50.5736 30.6345 49.8309 30.3047 48.3247L31.9325 46.6801Z" fill="#FFC3BD"/>
<path d="M37.2588 48.6352L35.0644 51.0729L32.2949 50.5778L34.1849 47.4143L37.2588 48.6352V48.6352Z" fill="#FFC3BD"/>
<path d="M47.7446 10.9085C47.6812 11.156 47.7446 11.391 47.9264 11.433C48.1082 11.4749 48.2731 11.3071 48.3493 11.0595C48.4254 10.812 48.3493 10.5729 48.1674 10.5309C47.9856 10.4889 47.808 10.6568 47.7446 10.9085Z" fill="#263238"/>
<path d="M47.7407 11.3868C47.8431 12.2222 48.0608 13.0396 48.3876 13.8161C47.9738 13.9778 47.509 13.9486 47.1191 13.7364L47.7407 11.3868Z" fill="#ED847E"/>
<path d="M47.1871 9.29325C47.1316 9.26924 47.0957 9.21487 47.0957 9.15479C47.0957 9.09472 47.1316 9.04035 47.1871 9.01634C47.6384 8.82729 48.1542 8.86798 48.5697 9.12542C48.637 9.1758 48.6536 9.26921 48.6078 9.3394C48.5585 9.40618 48.4642 9.42115 48.3963 9.37296V9.37296C48.0632 9.17462 47.6545 9.14655 47.297 9.29744C47.2613 9.31056 47.2217 9.30905 47.1871 9.29325V9.29325Z" fill="#263238"/>
<path d="M39.1234 11.8819C39.5843 14.2104 40.0452 18.4774 38.4004 20.0297C38.4004 20.0297 39.0431 22.396 43.4023 22.396C48.2013 22.396 45.6982 20.0297 45.6982 20.0297C43.0768 19.413 43.1613 17.483 43.5841 15.6747L39.1234 11.8819Z" fill="#FFC3BD"/>
<path d="M37.5971 21.2297C37.373 19.971 37.1236 18.5445 37.9523 18.1795C38.8614 17.7599 43.6392 17.7347 45.1825 18.792C46.7258 19.8493 46.0281 22.2828 46.0281 22.2828L37.5971 21.2297Z" fill="#263238"/>
<path opacity="0.6" d="M37.5971 21.2297C37.373 19.971 37.1236 18.5445 37.9523 18.1795C38.8614 17.7599 43.6392 17.7347 45.1825 18.792C46.7258 19.8493 46.0281 22.2828 46.0281 22.2828L37.5971 21.2297Z" fill="#83FFA3"/>
<path fill-rule="evenodd" clip-rule="evenodd" d="M23.0859 128.288C22.8361 128.465 22.5479 128.487 22.2867 128.349C22.0126 128.264 21.7459 128.134 21.4918 127.961C21.4637 127.945 21.4451 127.906 21.4453 127.862C21.448 127.818 21.4677 127.78 21.4961 127.764C21.5383 127.733 22.5404 127.141 22.9632 127.443C23.0589 127.505 23.1315 127.624 23.162 127.77C23.2163 127.948 23.1856 128.157 23.0859 128.288ZM22.8998 127.647L22.811 127.603V127.634C22.44 127.593 22.0672 127.673 21.7201 127.868C22.1768 128.115 22.8152 128.331 22.9886 128.115C23.014 128.097 23.0563 128.035 23.014 127.838C22.997 127.753 22.9552 127.683 22.8998 127.647Z" fill="#83FFA3"/>
<path fill-rule="evenodd" clip-rule="evenodd" d="M21.5314 127.776H21.4976C21.4836 127.774 21.4705 127.769 21.4595 127.76C21.4389 127.74 21.4307 127.711 21.4384 127.684C21.4388 127.683 21.4395 127.681 21.4405 127.678C21.4691 127.59 21.7397 126.758 22.1487 126.547C22.253 126.492 22.3756 126.483 22.487 126.522C22.6023 126.546 22.684 126.648 22.6815 126.765C22.673 127.126 21.895 127.672 21.5314 127.776ZM22.4363 126.648H22.4151C22.3503 126.63 22.2814 126.636 22.2206 126.665C21.9394 126.899 21.7361 127.212 21.6371 127.563C22.0134 127.386 22.5293 126.958 22.5293 126.744C22.5293 126.723 22.5293 126.677 22.4363 126.648Z" fill="#83FFA3"/>
<path fill-rule="evenodd" clip-rule="evenodd" d="M46.8915 129.57C46.7562 129.824 46.3714 129.907 45.9486 129.907C45.624 129.903 45.3001 129.861 44.9804 129.783C44.9499 129.772 44.9268 129.737 44.9212 129.694C44.9153 129.649 44.9306 129.604 44.9592 129.582C44.9973 129.546 46.1178 128.654 46.6505 128.855C46.7519 128.887 46.8392 128.977 46.8915 129.103C46.9628 129.243 46.9628 129.43 46.8915 129.57ZM46.604 129.038C46.5549 129.029 46.5051 129.029 46.456 129.038H46.4433C46.0043 129.112 45.5794 129.302 45.1918 129.599C45.788 129.718 46.5998 129.712 46.752 129.422C46.7858 129.381 46.8069 129.316 46.752 129.186C46.719 129.111 46.6656 129.057 46.604 129.038Z" fill="#83FFA3"/>
<path fill-rule="evenodd" clip-rule="evenodd" d="M45.0089 129.505H44.9793C44.9637 129.508 44.9475 129.507 44.9327 129.501C44.9105 129.484 44.8991 129.457 44.9031 129.43C44.9031 129.396 44.975 128.536 45.3978 128.204C45.5147 128.105 45.6677 128.058 45.8207 128.074C46.0278 128.095 46.104 128.2 46.104 128.284C46.1631 128.666 45.3936 129.333 45.0089 129.505ZM45.8038 128.213H45.7615C45.6641 128.214 45.57 128.248 45.4951 128.309C45.2564 128.586 45.1089 128.929 45.0723 129.291C45.4697 129.052 45.9898 128.511 45.956 128.297C45.9558 128.296 45.9556 128.295 45.9553 128.294C45.9506 128.274 45.9366 128.213 45.8038 128.213Z" fill="#83FFA3"/>
<path d="M41.4492 129.43H44.6584L44.9755 122.054H41.7706L41.4492 129.43V129.43Z" fill="#FFC3BD"/>
<path d="M17.9316 126.929L21.0647 127.604L24.2147 120.736L21.0774 120.061L17.9316 126.929V126.929Z" fill="#FFC3BD"/>
<path d="M21.3689 127.29L17.8426 126.535C17.7145 126.507 17.5843 126.572 17.5297 126.69L16.3078 129.321C16.2482 129.451 16.2519 129.601 16.3178 129.729C16.3837 129.856 16.5045 129.947 16.646 129.975C17.8807 130.218 18.4937 130.273 20.0286 130.609C20.9841 130.814 23.1363 131.334 24.4513 131.616C25.7662 131.897 26.2229 130.642 25.7197 130.411C23.4196 129.367 22.4598 128.448 21.834 127.592C21.7218 127.438 21.5561 127.33 21.3689 127.29Z" fill="#263238"/>
<path d="M44.637 129.06H41.1319C41.0008 129.06 40.8875 129.151 40.8613 129.278L40.227 132.106C40.1944 132.245 40.228 132.391 40.3181 132.501C40.4081 132.612 40.5446 132.675 40.6879 132.673C41.9564 132.652 43.7787 132.58 45.3685 132.58C47.2247 132.58 48.8272 132.681 51.0089 132.681C52.3239 132.681 52.7002 131.359 52.1378 131.238C49.6305 130.692 47.5799 130.634 45.4108 129.308C45.1805 129.157 44.9129 129.071 44.637 129.06Z" fill="#263238"/>
<path d="M51.0343 23.8771C52.0787 26.214 53.2203 28.6139 54.4168 30.9089C55.013 32.0585 55.6346 33.1913 56.2772 34.2653C56.8986 35.3269 57.5849 36.3497 58.3321 37.3281L58.6027 37.6638C58.6704 37.7267 58.6027 37.6973 58.7085 37.7728C58.8772 37.9194 59.0582 38.0514 59.2497 38.1672C59.7572 38.4743 60.2808 38.7544 60.8183 39.0063C61.9515 39.5476 63.1565 40.0678 64.3785 40.5587C66.8181 41.5447 69.3297 42.4887 71.8243 43.4327L71.2154 45.7487C68.5087 45.3174 65.827 44.7432 63.1819 44.0285C61.8542 43.6509 60.5266 43.2649 59.1862 42.7698C58.4811 42.5114 57.7921 42.2115 57.1229 41.8719C56.7254 41.6675 56.3451 41.4318 55.9855 41.1671C55.7561 40.9959 55.5412 40.8065 55.3428 40.6007L54.9496 40.1811C53.9843 39.0983 53.1037 37.9439 52.3154 36.7281C51.5332 35.5576 50.8271 34.3618 50.1506 33.1535C48.8139 30.748 47.6141 28.2702 46.5566 25.7315L51.0343 23.8771Z" fill="#FFC3BD"/>
<path d="M31.666 20.7514C28.6598 21.4353 23.6113 36.2541 23.6113 36.2541L28.5245 37.8736C28.5245 37.8736 33.5391 30.5019 35.2431 26.965C37.0231 23.2268 34.7441 20.0507 31.666 20.7514Z" fill="#83FFA3"/>
<path opacity="0.5" d="M31.666 20.7514C28.6598 21.4353 23.6113 36.2541 23.6113 36.2541L28.5245 37.8736C28.5245 37.8736 33.5391 30.5019 35.2431 26.965C37.0231 23.2268 34.7441 20.0507 31.666 20.7514Z" fill="black"/>
<path d="M29.3779 37.1477C29.3779 37.1477 24.562 36.2372 23.4585 35.5576C23.0737 36.1114 22.6128 38.1169 22.9257 38.7084C23.2386 39.3 27.7247 40.1517 28.3336 39.8035C28.9424 39.4553 29.3779 37.1477 29.3779 37.1477Z" fill="#263238"/>
<path opacity="0.6" d="M29.3779 37.1477C29.3779 37.1477 24.562 36.2372 23.4585 35.5576C23.0737 36.1114 22.6128 38.1169 22.9257 38.7084C23.2386 39.3 27.7247 40.1517 28.3336 39.8035C28.9424 39.4553 29.3779 37.1477 29.3779 37.1477Z" fill="#83FFA3"/>
<path opacity="0.3" d="M33.6137 26.0126C32.6962 26.9231 31.8633 29.5075 31.8379 32.7927C32.8992 31.1145 33.9943 29.3145 34.7596 27.8755C34.3959 26.579 33.99 25.6518 33.6137 26.0126Z" fill="black"/>
<path d="M49.6443 20.915C49.6443 20.915 53.0606 24.7414 49.8345 48.438H32.6723C32.5539 45.8242 34.2072 33.0696 31.666 20.7472C33.5636 20.3835 35.483 20.1425 37.4121 20.0255C39.8427 19.887 42.2794 19.887 44.71 20.0255C46.3756 20.1942 48.0253 20.4915 49.6443 20.915Z" fill="#83FFA3"/>
<path opacity="0.5" d="M49.6443 20.915C49.6443 20.915 53.0606 24.7414 49.8345 48.438H32.6723C32.5539 45.8242 34.2072 33.0696 31.666 20.7472C33.5636 20.3835 35.483 20.1425 37.4121 20.0255C39.8427 19.887 42.2794 19.887 44.71 20.0255C46.3756 20.1942 48.0253 20.4915 49.6443 20.915Z" fill="black"/>
<path opacity="0.3" d="M47.0977 28.4838C47.4232 31.941 49.6346 36.3296 50.9284 38.3183C51.0975 36.0359 51.1863 34.0472 51.2117 32.3102L47.0977 28.4838Z" fill="black"/>
<path d="M45.394 23.382C43.3264 27.2629 54.121 39.8832 54.121 39.8832L57.8925 36.0862C57.8925 36.0862 52.9963 27.5902 51.8462 23.8226C50.4256 19.1655 46.9669 20.4283 45.394 23.382Z" fill="#83FFA3"/>
<path opacity="0.5" d="M45.394 23.382C43.3264 27.2629 54.121 39.8832 54.121 39.8832L57.8925 36.0862C57.8925 36.0862 52.9963 27.5902 51.8462 23.8226C50.4256 19.1655 46.9669 20.4283 45.394 23.382Z" fill="black"/>
<path d="M57.741 35.3352C57.741 35.3352 54.4684 38.956 53.3184 39.5308C53.5974 40.1433 55.0815 41.5824 55.7623 41.6286C56.443 41.6747 59.4873 38.2973 59.5 37.6008C59.5127 36.9044 57.741 35.3352 57.741 35.3352Z" fill="#263238"/>
<path opacity="0.6" d="M57.741 35.3352C57.741 35.3352 54.4684 38.956 53.3184 39.5308C53.5974 40.1433 55.0815 41.5824 55.7623 41.6286C56.443 41.6747 59.4873 38.2973 59.5 37.6008C59.5127 36.9044 57.741 35.3352 57.741 35.3352Z" fill="#83FFA3"/>
<path d="M71.0851 43.4747L74.1928 42.1447L75.1611 45.5011C75.1611 45.5011 72.7891 47.0409 70.8906 45.6941L71.0851 43.4747Z" fill="#FFC3BD"/>
<path d="M77.6594 43.7348V43.7348C77.5576 43.8021 77.4203 43.7759 77.3508 43.676L73.9006 38.5994C73.8669 38.5512 73.8541 38.4915 73.8653 38.4339C73.8764 38.3762 73.9105 38.3255 73.9598 38.2931V38.2931C74.0083 38.2596 74.0685 38.247 74.1265 38.2581C74.1846 38.2691 74.2358 38.3029 74.2684 38.3518L77.7186 43.4285C77.7523 43.4767 77.7651 43.5363 77.7539 43.594C77.7428 43.6516 77.7087 43.7024 77.6594 43.7348V43.7348Z" fill="#263238"/>
<path d="M77.4702 42.3922L78.8359 44.3977L75.1616 45.4885L74.1934 42.1404L77.4702 42.3922V42.3922Z" fill="#FFC3BD"/>
<path opacity="0.2" d="M44.9757 122.058L44.815 125.859H41.6016L41.7665 122.058H44.9757V122.058Z" fill="black"/>
<path opacity="0.2" d="M21.0787 120.065L24.216 120.736L22.5924 124.277L19.4551 123.602L21.0787 120.065V120.065Z" fill="black"/>
<path d="M39.522 8.24851C38.9216 11.3532 38.41 13.1406 39.5601 15.1041C41.2894 18.041 45.4499 17.6214 46.9721 14.7643C48.3462 12.1882 49.0862 7.54785 46.397 5.56334C45.1919 4.66847 43.6057 4.45674 42.205 5.00378C40.8044 5.55083 39.7892 6.77861 39.522 8.24851V8.24851Z" fill="#FFC3BD"/>
<path d="M38.2876 6.71293C40.5497 5.9787 44.837 4.39697 46.3507 8.00936C47.8644 11.6218 41.6997 15.3936 40.1311 15.3978C38.8711 15.4104 35.8014 7.55204 38.2876 6.71293Z" fill="#263238"/>
<path d="M42.996 8.23591C47.4272 10.6484 51.4524 7.17862 49.6554 3.25575C47.8585 -0.667117 43.9305 -0.100713 45.1524 1.81247C46.3744 3.72566 42.996 0.826511 40.6621 1.72017C39.0258 2.34531 41.1483 3.36484 41.347 4.10326C41.5458 4.84168 37.0639 4.86266 36.4677 5.9703C35.8715 7.07793 38.0237 9.3855 39.1272 9.02468C40.2308 8.66386 42.2138 7.80377 42.996 8.23591Z" fill="#263238"/>
<path d="M44.2783 10.0946C44.1321 10.8665 44.2481 11.6648 44.6081 12.3644C45.0859 13.279 45.9146 13.0063 46.274 12.1378C46.5996 11.3533 46.7391 9.93514 46.0204 9.31C45.3016 8.68486 44.4644 9.16735 44.2783 10.0946Z" fill="#FFC3BD"/>
<path d="M43.7452 48.438C43.7452 48.438 40.1047 72.7724 38.1048 81.8852C35.9146 91.8707 24.211 123.87 24.211 123.87L18.4648 122.637C18.4648 122.637 27.2299 92.6762 28.4772 82.7789C29.8344 72.0507 32.6716 48.4254 32.6716 48.4254L43.7452 48.438Z" fill="#263238"/>
<path d="M25.5854 121.97C25.6108 121.97 24.5157 124.03 24.5157 124.03L18.0508 122.641L18.5962 120.715L25.5854 121.97Z" fill="#83FFA3"/>
<path opacity="0.3" d="M41.4458 57.1061C37.2177 57.9242 37.6785 73.5066 38.1859 81.5202C39.3994 75.8562 41.1795 64.956 42.393 57.2194C42.0991 57.077 41.7654 57.0371 41.4458 57.1061V57.1061Z" fill="black"/>
<path d="M49.8251 48.438C49.8251 48.438 50.2479 72.2437 49.9181 81.9523C49.5629 92.0511 46.0197 125.121 46.0197 125.121H40.5738C40.5738 125.121 40.3709 92.6427 40.1298 82.7243C39.8677 71.9123 38.5527 48.438 38.5527 48.438L49.8251 48.438Z" fill="#263238"/>
<path d="M47.0562 122.973C47.0815 122.973 46.7475 125.213 46.7475 125.213H40.1346L39.957 123.216L47.0562 122.973Z" fill="#83FFA3"/>
</svg>
