<svg width="172" height="81" viewBox="0 0 172 81" fill="none" xmlns="http://www.w3.org/2000/svg">
<path fill-rule="evenodd" clip-rule="evenodd" d="M7.5 4.22656C7.5 6.15969 5.93211 7.72656 4.00066 7.72656C2.06789 7.72656 0.5 6.15969 0.5 4.22656C0.5 2.29343 2.06789 0.726562 4.00066 0.726562C5.93211 0.726562 7.5 2.29343 7.5 4.22656Z" stroke="#68D585"/>
<path fill-rule="evenodd" clip-rule="evenodd" d="M26.5 4.22656C26.5 6.15969 24.9321 7.72656 23.0007 7.72656C21.0679 7.72656 19.5 6.15969 19.5 4.22656C19.5 2.29343 21.0679 0.726562 23.0007 0.726562C24.9321 0.726562 26.5 2.29343 26.5 4.22656Z" stroke="#68D585"/>
<path fill-rule="evenodd" clip-rule="evenodd" d="M44.5 4.22656C44.5 6.15969 42.9321 7.72656 41.0007 7.72656C39.0679 7.72656 37.5 6.15969 37.5 4.22656C37.5 2.29343 39.0679 0.726562 41.0007 0.726562C42.9321 0.726562 44.5 2.29343 44.5 4.22656Z" stroke="#68D585"/>
<path fill-rule="evenodd" clip-rule="evenodd" d="M62.5 4.22656C62.5 6.15969 60.9334 7.72656 59.0007 7.72656C57.0679 7.72656 55.5 6.15969 55.5 4.22656C55.5 2.29343 57.0679 0.726562 59.0007 0.726562C60.9334 0.726562 62.5 2.29343 62.5 4.22656Z" stroke="#68D585"/>
<path fill-rule="evenodd" clip-rule="evenodd" d="M80.5 4.22656C80.5 6.15969 78.9331 7.72656 77 7.72656C75.0669 7.72656 73.5 6.15969 73.5 4.22656C73.5 2.29343 75.0669 0.726562 77 0.726562C78.9331 0.726562 80.5 2.29343 80.5 4.22656Z" stroke="#68D585"/>
<path fill-rule="evenodd" clip-rule="evenodd" d="M98.5 4.22656C98.5 6.15969 96.9331 7.72656 95 7.72656C93.0669 7.72656 91.5 6.15969 91.5 4.22656C91.5 2.29343 93.0669 0.726562 95 0.726562C96.9331 0.726562 98.5 2.29343 98.5 4.22656Z" stroke="#68D585"/>
<path fill-rule="evenodd" clip-rule="evenodd" d="M116.5 4.22656C116.5 6.15969 114.933 7.72656 113.001 7.72656C111.067 7.72656 109.5 6.15969 109.5 4.22656C109.5 2.29343 111.067 0.726562 113.001 0.726562C114.933 0.726562 116.5 2.29343 116.5 4.22656Z" stroke="#68D585"/>
<path fill-rule="evenodd" clip-rule="evenodd" d="M134.5 4.22656C134.5 6.15969 132.932 7.72656 131.001 7.72656C129.067 7.72656 127.5 6.15969 127.5 4.22656C127.5 2.29343 129.067 0.726562 131.001 0.726562C132.932 0.726562 134.5 2.29343 134.5 4.22656Z" stroke="#68D585"/>
<path fill-rule="evenodd" clip-rule="evenodd" d="M152.5 4.22656C152.5 6.15969 150.932 7.72656 149.001 7.72656C147.068 7.72656 145.5 6.15969 145.5 4.22656C145.5 2.29343 147.068 0.726562 149.001 0.726562C150.932 0.726562 152.5 2.29343 152.5 4.22656Z" stroke="#68D585"/>
<path fill-rule="evenodd" clip-rule="evenodd" d="M170.5 4.22656C170.5 6.15969 168.932 7.72656 167.001 7.72656C165.068 7.72656 163.5 6.15969 163.5 4.22656C163.5 2.29343 165.068 0.726562 167.001 0.726562C168.932 0.726562 170.5 2.29343 170.5 4.22656Z" stroke="#68D585"/>
<path fill-rule="evenodd" clip-rule="evenodd" d="M7.5 22.2266C7.5 24.1597 5.93211 25.7266 4.00066 25.7266C2.06789 25.7266 0.5 24.1597 0.5 22.2266C0.5 20.2934 2.06789 18.7266 4.00066 18.7266C5.93211 18.7266 7.5 20.2934 7.5 22.2266Z" stroke="#68D585"/>
<path fill-rule="evenodd" clip-rule="evenodd" d="M26.5 22.2266C26.5 24.1597 24.9321 25.7266 23.0007 25.7266C21.0679 25.7266 19.5 24.1597 19.5 22.2266C19.5 20.2934 21.0679 18.7266 23.0007 18.7266C24.9321 18.7266 26.5 20.2934 26.5 22.2266Z" stroke="#68D585"/>
<path fill-rule="evenodd" clip-rule="evenodd" d="M44.5 22.2266C44.5 24.1597 42.9321 25.7266 41.0007 25.7266C39.0679 25.7266 37.5 24.1597 37.5 22.2266C37.5 20.2934 39.0679 18.7266 41.0007 18.7266C42.9321 18.7266 44.5 20.2934 44.5 22.2266Z" stroke="#68D585"/>
<path fill-rule="evenodd" clip-rule="evenodd" d="M62.5 22.2266C62.5 24.1597 60.9334 25.7266 59.0007 25.7266C57.0679 25.7266 55.5 24.1597 55.5 22.2266C55.5 20.2934 57.0679 18.7266 59.0007 18.7266C60.9334 18.7266 62.5 20.2934 62.5 22.2266Z" stroke="#68D585"/>
<path fill-rule="evenodd" clip-rule="evenodd" d="M80.5 22.2266C80.5 24.1597 78.9331 25.7266 77 25.7266C75.0669 25.7266 73.5 24.1597 73.5 22.2266C73.5 20.2934 75.0669 18.7266 77 18.7266C78.9331 18.7266 80.5 20.2934 80.5 22.2266Z" stroke="#68D585"/>
<path fill-rule="evenodd" clip-rule="evenodd" d="M98.5 22.2266C98.5 24.1597 96.9331 25.7266 95 25.7266C93.0669 25.7266 91.5 24.1597 91.5 22.2266C91.5 20.2934 93.0669 18.7266 95 18.7266C96.9331 18.7266 98.5 20.2934 98.5 22.2266Z" stroke="#68D585"/>
<path fill-rule="evenodd" clip-rule="evenodd" d="M116.5 22.2266C116.5 24.1597 114.933 25.7266 113.001 25.7266C111.067 25.7266 109.5 24.1597 109.5 22.2266C109.5 20.2934 111.067 18.7266 113.001 18.7266C114.933 18.7266 116.5 20.2934 116.5 22.2266Z" stroke="#68D585"/>
<path fill-rule="evenodd" clip-rule="evenodd" d="M134.5 22.2266C134.5 24.1597 132.932 25.7266 131.001 25.7266C129.067 25.7266 127.5 24.1597 127.5 22.2266C127.5 20.2934 129.067 18.7266 131.001 18.7266C132.932 18.7266 134.5 20.2934 134.5 22.2266Z" stroke="#68D585"/>
<path fill-rule="evenodd" clip-rule="evenodd" d="M152.5 22.2266C152.5 24.1597 150.932 25.7266 149.001 25.7266C147.068 25.7266 145.5 24.1597 145.5 22.2266C145.5 20.2934 147.068 18.7266 149.001 18.7266C150.932 18.7266 152.5 20.2934 152.5 22.2266Z" stroke="#68D585"/>
<path fill-rule="evenodd" clip-rule="evenodd" d="M170.5 22.2266C170.5 24.1597 168.932 25.7266 167.001 25.7266C165.068 25.7266 163.5 24.1597 163.5 22.2266C163.5 20.2934 165.068 18.7266 167.001 18.7266C168.932 18.7266 170.5 20.2934 170.5 22.2266Z" stroke="#68D585"/>
<path fill-rule="evenodd" clip-rule="evenodd" d="M7.5 40.2266C7.5 42.1597 5.93211 43.7266 4.00066 43.7266C2.06789 43.7266 0.5 42.1597 0.5 40.2266C0.5 38.2934 2.06789 36.7266 4.00066 36.7266C5.93211 36.7266 7.5 38.2934 7.5 40.2266Z" stroke="#68D585"/>
<path fill-rule="evenodd" clip-rule="evenodd" d="M26.5 40.2266C26.5 42.1597 24.9321 43.7266 23.0007 43.7266C21.0679 43.7266 19.5 42.1597 19.5 40.2266C19.5 38.2934 21.0679 36.7266 23.0007 36.7266C24.9321 36.7266 26.5 38.2934 26.5 40.2266Z" stroke="#68D585"/>
<path fill-rule="evenodd" clip-rule="evenodd" d="M44.5 40.2266C44.5 42.1597 42.9321 43.7266 41.0007 43.7266C39.0679 43.7266 37.5 42.1597 37.5 40.2266C37.5 38.2934 39.0679 36.7266 41.0007 36.7266C42.9321 36.7266 44.5 38.2934 44.5 40.2266Z" stroke="#68D585"/>
<path fill-rule="evenodd" clip-rule="evenodd" d="M62.5 40.2266C62.5 42.1597 60.9334 43.7266 59.0007 43.7266C57.0679 43.7266 55.5 42.1597 55.5 40.2266C55.5 38.2934 57.0679 36.7266 59.0007 36.7266C60.9334 36.7266 62.5 38.2934 62.5 40.2266Z" stroke="#68D585"/>
<path fill-rule="evenodd" clip-rule="evenodd" d="M80.5 40.2266C80.5 42.1597 78.9331 43.7266 77 43.7266C75.0669 43.7266 73.5 42.1597 73.5 40.2266C73.5 38.2934 75.0669 36.7266 77 36.7266C78.9331 36.7266 80.5 38.2934 80.5 40.2266Z" stroke="#68D585"/>
<path fill-rule="evenodd" clip-rule="evenodd" d="M98.5 40.2266C98.5 42.1597 96.9331 43.7266 95 43.7266C93.0669 43.7266 91.5 42.1597 91.5 40.2266C91.5 38.2934 93.0669 36.7266 95 36.7266C96.9331 36.7266 98.5 38.2934 98.5 40.2266Z" stroke="#68D585"/>
<path fill-rule="evenodd" clip-rule="evenodd" d="M116.5 40.2266C116.5 42.1597 114.933 43.7266 113.001 43.7266C111.067 43.7266 109.5 42.1597 109.5 40.2266C109.5 38.2934 111.067 36.7266 113.001 36.7266C114.933 36.7266 116.5 38.2934 116.5 40.2266Z" stroke="#68D585"/>
<path fill-rule="evenodd" clip-rule="evenodd" d="M134.5 40.2266C134.5 42.1597 132.932 43.7266 131.001 43.7266C129.067 43.7266 127.5 42.1597 127.5 40.2266C127.5 38.2934 129.067 36.7266 131.001 36.7266C132.932 36.7266 134.5 38.2934 134.5 40.2266Z" stroke="#68D585"/>
<path fill-rule="evenodd" clip-rule="evenodd" d="M152.5 40.2266C152.5 42.1597 150.932 43.7266 149.001 43.7266C147.068 43.7266 145.5 42.1597 145.5 40.2266C145.5 38.2934 147.068 36.7266 149.001 36.7266C150.932 36.7266 152.5 38.2934 152.5 40.2266Z" stroke="#68D585"/>
<path fill-rule="evenodd" clip-rule="evenodd" d="M170.5 40.2266C170.5 42.1597 168.932 43.7266 167.001 43.7266C165.068 43.7266 163.5 42.1597 163.5 40.2266C163.5 38.2934 165.068 36.7266 167.001 36.7266C168.932 36.7266 170.5 38.2934 170.5 40.2266Z" stroke="#68D585"/>
<path fill-rule="evenodd" clip-rule="evenodd" d="M7.5 58.2266C7.5 60.1597 5.93211 61.7266 4.00066 61.7266C2.06789 61.7266 0.5 60.1597 0.5 58.2266C0.5 56.2934 2.06789 54.7266 4.00066 54.7266C5.93211 54.7266 7.5 56.2934 7.5 58.2266Z" stroke="#68D585"/>
<path fill-rule="evenodd" clip-rule="evenodd" d="M26.5 58.2266C26.5 60.1597 24.9321 61.7266 23.0007 61.7266C21.0679 61.7266 19.5 60.1597 19.5 58.2266C19.5 56.2934 21.0679 54.7266 23.0007 54.7266C24.9321 54.7266 26.5 56.2934 26.5 58.2266Z" stroke="#68D585"/>
<path fill-rule="evenodd" clip-rule="evenodd" d="M44.5 58.2266C44.5 60.1597 42.9321 61.7266 41.0007 61.7266C39.0679 61.7266 37.5 60.1597 37.5 58.2266C37.5 56.2934 39.0679 54.7266 41.0007 54.7266C42.9321 54.7266 44.5 56.2934 44.5 58.2266Z" stroke="#68D585"/>
<path fill-rule="evenodd" clip-rule="evenodd" d="M62.5 58.2266C62.5 60.1597 60.9334 61.7266 59.0007 61.7266C57.0679 61.7266 55.5 60.1597 55.5 58.2266C55.5 56.2934 57.0679 54.7266 59.0007 54.7266C60.9334 54.7266 62.5 56.2934 62.5 58.2266Z" stroke="#68D585"/>
<path fill-rule="evenodd" clip-rule="evenodd" d="M80.5 58.2266C80.5 60.1597 78.9331 61.7266 77 61.7266C75.0669 61.7266 73.5 60.1597 73.5 58.2266C73.5 56.2934 75.0669 54.7266 77 54.7266C78.9331 54.7266 80.5 56.2934 80.5 58.2266Z" stroke="#68D585"/>
<path fill-rule="evenodd" clip-rule="evenodd" d="M98.5 58.2266C98.5 60.1597 96.9331 61.7266 95 61.7266C93.0669 61.7266 91.5 60.1597 91.5 58.2266C91.5 56.2934 93.0669 54.7266 95 54.7266C96.9331 54.7266 98.5 56.2934 98.5 58.2266Z" stroke="#68D585"/>
<path fill-rule="evenodd" clip-rule="evenodd" d="M116.5 58.2266C116.5 60.1597 114.933 61.7266 113.001 61.7266C111.067 61.7266 109.5 60.1597 109.5 58.2266C109.5 56.2934 111.067 54.7266 113.001 54.7266C114.933 54.7266 116.5 56.2934 116.5 58.2266Z" stroke="#68D585"/>
<path fill-rule="evenodd" clip-rule="evenodd" d="M134.5 58.2266C134.5 60.1597 132.932 61.7266 131.001 61.7266C129.067 61.7266 127.5 60.1597 127.5 58.2266C127.5 56.2934 129.067 54.7266 131.001 54.7266C132.932 54.7266 134.5 56.2934 134.5 58.2266Z" stroke="#68D585"/>
<path fill-rule="evenodd" clip-rule="evenodd" d="M152.5 58.2266C152.5 60.1597 150.932 61.7266 149.001 61.7266C147.068 61.7266 145.5 60.1597 145.5 58.2266C145.5 56.2934 147.068 54.7266 149.001 54.7266C150.932 54.7266 152.5 56.2934 152.5 58.2266Z" stroke="#68D585"/>
<path fill-rule="evenodd" clip-rule="evenodd" d="M170.5 58.2266C170.5 60.1597 168.932 61.7266 167.001 61.7266C165.068 61.7266 163.5 60.1597 163.5 58.2266C163.5 56.2934 165.068 54.7266 167.001 54.7266C168.932 54.7266 170.5 56.2934 170.5 58.2266Z" stroke="#68D585"/>
<path fill-rule="evenodd" clip-rule="evenodd" d="M7.5 76.2266C7.5 78.1597 5.93211 79.7266 4.00066 79.7266C2.06789 79.7266 0.5 78.1597 0.5 76.2266C0.5 74.2934 2.06789 72.7266 4.00066 72.7266C5.93211 72.7266 7.5 74.2934 7.5 76.2266Z" stroke="#68D585"/>
<path fill-rule="evenodd" clip-rule="evenodd" d="M26.5 76.2266C26.5 78.1597 24.9321 79.7266 23.0007 79.7266C21.0679 79.7266 19.5 78.1597 19.5 76.2266C19.5 74.2934 21.0679 72.7266 23.0007 72.7266C24.9321 72.7266 26.5 74.2934 26.5 76.2266Z" stroke="#68D585"/>
<path fill-rule="evenodd" clip-rule="evenodd" d="M44.5 76.2266C44.5 78.1597 42.9321 79.7266 41.0007 79.7266C39.0679 79.7266 37.5 78.1597 37.5 76.2266C37.5 74.2934 39.0679 72.7266 41.0007 72.7266C42.9321 72.7266 44.5 74.2934 44.5 76.2266Z" stroke="#68D585"/>
<path fill-rule="evenodd" clip-rule="evenodd" d="M62.5 76.2266C62.5 78.1597 60.9334 79.7266 59.0007 79.7266C57.0679 79.7266 55.5 78.1597 55.5 76.2266C55.5 74.2934 57.0679 72.7266 59.0007 72.7266C60.9334 72.7266 62.5 74.2934 62.5 76.2266Z" stroke="#68D585"/>
<path fill-rule="evenodd" clip-rule="evenodd" d="M80.5 76.2266C80.5 78.1597 78.9331 79.7266 77 79.7266C75.0669 79.7266 73.5 78.1597 73.5 76.2266C73.5 74.2934 75.0669 72.7266 77 72.7266C78.9331 72.7266 80.5 74.2934 80.5 76.2266Z" stroke="#68D585"/>
<path fill-rule="evenodd" clip-rule="evenodd" d="M98.5 76.2266C98.5 78.1597 96.9331 79.7266 95 79.7266C93.0669 79.7266 91.5 78.1597 91.5 76.2266C91.5 74.2934 93.0669 72.7266 95 72.7266C96.9331 72.7266 98.5 74.2934 98.5 76.2266Z" stroke="#68D585"/>
<path fill-rule="evenodd" clip-rule="evenodd" d="M116.5 76.2266C116.5 78.1597 114.933 79.7266 113.001 79.7266C111.067 79.7266 109.5 78.1597 109.5 76.2266C109.5 74.2934 111.067 72.7266 113.001 72.7266C114.933 72.7266 116.5 74.2934 116.5 76.2266Z" stroke="#68D585"/>
<path fill-rule="evenodd" clip-rule="evenodd" d="M134.5 76.2266C134.5 78.1597 132.932 79.7266 131.001 79.7266C129.067 79.7266 127.5 78.1597 127.5 76.2266C127.5 74.2934 129.067 72.7266 131.001 72.7266C132.932 72.7266 134.5 74.2934 134.5 76.2266Z" stroke="#68D585"/>
<path fill-rule="evenodd" clip-rule="evenodd" d="M152.5 76.2266C152.5 78.1597 150.932 79.7266 149.001 79.7266C147.068 79.7266 145.5 78.1597 145.5 76.2266C145.5 74.2934 147.068 72.7266 149.001 72.7266C150.932 72.7266 152.5 74.2934 152.5 76.2266Z" stroke="#68D585"/>
<path fill-rule="evenodd" clip-rule="evenodd" d="M170.5 76.2266C170.5 78.1597 168.932 79.7266 167.001 79.7266C165.068 79.7266 163.5 78.1597 163.5 76.2266C163.5 74.2934 165.068 72.7266 167.001 72.7266C168.932 72.7266 170.5 74.2934 170.5 76.2266Z" stroke="#68D585"/>
</svg>
